<svg width="178" height="72" viewBox="0 0 178 72" fill="none" xmlns="http://www.w3.org/2000/svg">
<path d="M54.706 2.598C64.006 2.598 70.702 4.427 74.794 8.085C78.886 11.743 80.932 17.385 80.932 25.011C80.932 32.699 78.886 38.372 74.794 42.03C70.702 45.626 64.006 47.424 54.706 47.424H21.598V69H0.394V2.598H54.706ZM49.312 32.73C52.164 32.73 54.241 32.141 55.543 30.963C56.907 29.785 57.589 27.987 57.589 25.569C57.589 23.089 56.938 21.291 55.636 20.175C54.334 18.997 52.226 18.408 49.312 18.408H21.598V32.73H49.312ZM177.101 69H162.128V61.374C159.028 64.722 155.122 67.202 150.41 68.814C145.76 70.364 140.242 71.139 133.856 71.139C118.604 71.139 107.01 68.225 99.0743 62.397C91.1383 56.569 87.1703 47.703 87.1703 35.799C87.1703 23.895 91.1073 15.029 98.9813 9.201C106.855 3.373 118.263 0.458996 133.205 0.458996C147.341 0.458996 158.005 2.722 165.197 7.248C172.389 11.774 176.264 17.943 176.822 25.755H151.526C150.906 23.709 149.232 21.756 146.504 19.896C143.776 18.036 139.343 17.106 133.205 17.106C125.579 17.106 119.875 18.718 116.093 21.942C112.311 25.166 110.42 29.785 110.42 35.799C110.42 48.695 118.263 55.143 133.949 55.143C138.475 55.143 142.195 54.616 145.109 53.562C148.023 52.446 150.131 51.175 151.433 49.749C152.797 48.261 153.51 46.897 153.572 45.657H135.623V31.986H177.101V69Z" fill="white"/>
</svg>
